<svg id="eQikB2MUr1L1" xmlns="http://www.w3.org/2000/svg" xmlns:xlink="http://www.w3.org/1999/xlink" viewBox="0 0 72 70" shape-rendering="geometricPrecision" text-rendering="geometricPrecision"><path d="M70.5,35c0,18.462-15.4061,33.5-34.5,33.5s-34.5-15.038-34.5-33.5s15.4061-33.5,34.5-33.5s34.5,15.038,34.5,33.5Z" fill="#e66d38" stroke="#000" stroke-width="3"/><path d="M36.93,50.2149c-.51.18-1.35.18-1.86,0-4.35-1.485-14.07-7.68-14.07-18.18c0-4.635,3.735-8.385,8.34-8.385c2.73,0,5.145,1.32,6.66,3.36.7707-1.0412,1.7745-1.8874,2.931-2.4709s2.4336-.888,3.729-.8891c4.605,0,8.34,3.75,8.34,8.385c0,10.5-9.72,16.695-14.07,18.18Z" fill="#f5f5f5" stroke="#000" stroke-width="1.5" stroke-linecap="round" stroke-linejoin="round"/></svg>
