<svg viewBox="0 0 81 77" fill="none" xmlns="http://www.w3.org/2000/svg">
<path d="M52.7005 75.2804H28.466C18.433 75.2804 11.6039 73.3881 7.26963 69.3132C2.94706 65.2493 0.942383 58.8578 0.942383 49.4487V26.6643C0.942383 17.2551 2.94706 10.8636 7.26963 6.79971C11.6039 2.7248 18.433 0.83252 28.466 0.83252H52.7005C62.7335 0.83252 69.5626 2.7248 73.8969 6.79971C78.2195 10.8636 80.2242 17.2551 80.2242 26.6643V49.4487C80.2242 58.8578 78.2195 65.2493 73.8969 69.3132C69.5626 73.3881 62.7335 75.2804 52.7005 75.2804Z" fill="#E66D38" stroke="#38383D" stroke-width="1.5" stroke-linecap="round" stroke-linejoin="round"/>
<path d="M45.7211 49.6368C44.0935 50.2707 42.3475 50.5974 40.5833 50.5974C37.0185 50.5974 33.6083 49.2656 31.1008 46.9082C28.5949 44.5522 27.1965 41.3671 27.1965 38.0565C27.1965 34.7459 28.5949 31.5608 31.1008 29.2049C33.6083 26.8474 37.0185 25.5156 40.5833 25.5156C42.3475 25.5156 44.0935 25.8424 45.7211 26.4762C47.3487 27.11 48.8247 28.0379 50.0658 29.2049C51.3069 30.3717 52.2888 31.7544 52.9577 33.2727C53.6266 34.7909 53.9701 36.4163 53.9701 38.0565C53.9701 39.6967 53.6266 41.3221 52.9577 42.8403C52.2888 44.3586 51.3069 45.7413 50.0658 46.9082C48.8247 48.0751 47.3487 49.003 45.7211 49.6368Z" fill="#E66D38" stroke="#38383D" stroke-width="1.5" stroke-linecap="round" stroke-linejoin="round"/>
<mask id="path-3-inside-1_231_20" fill="white">
<path d="M63.3481 19.0696H63.3968Z"/>
</mask>
<path d="M63.3481 19.0696H63.3968Z" fill="#E66D38"/>
<path d="M63.3481 17.0696C62.2436 17.0696 61.3481 17.965 61.3481 19.0696C61.3481 20.1741 62.2436 21.0696 63.3481 21.0696V17.0696ZM63.3968 21.0696C64.5014 21.0696 65.3968 20.1741 65.3968 19.0696C65.3968 17.965 64.5014 17.0696 63.3968 17.0696V21.0696ZM63.3481 21.0696H63.3968V17.0696H63.3481V21.0696Z" fill="#38383D" mask="url(#path-3-inside-1_231_20)"/>
</svg>
